<svg xmlns="http://www.w3.org/2000/svg" version="1.1" xmlns:xlink="http://www.w3.org/1999/xlink" width="512" height="512" x="0" y="0" viewBox="0 0 512 512" style="enable-background:new 0 0 512 512" xml:space="preserve" class=""><g><path fill="#6e61b6" d="M203.215 396.346h105.57v41.686h-105.57z" opacity="1" data-original="#6e61b6" class=""></path><path fill="#6354b1" d="M267 396.346h41.785v41.686H267z" opacity="1" data-original="#6354b1" class=""></path><path fill="#978ecb" d="M27.5 396.346c-14.612 0-26.5-11.888-26.5-26.5V52.196c0-14.612 11.888-26.5 26.5-26.5h457c14.612 0 26.5 11.888 26.5 26.5v317.65c0 14.612-11.888 26.5-26.5 26.5zm0-357.65c-7.444 0-13.5 6.056-13.5 13.5V337.15h484V52.196c0-7.444-6.056-13.5-13.5-13.5z" opacity="1" data-original="#978ecb" class=""></path><path fill="#978ecb" d="M27.5 38.696c-7.444 0-13.5 6.056-13.5 13.5V337.15h484V52.196c0-7.444-6.056-13.5-13.5-13.5z" opacity="1" data-original="#978ecb" class=""></path><path fill="#ffffff" d="M504.5 343.65H7.5V52.196c0-11.046 8.954-20 20-20h457c11.046 0 20 8.954 20 20z" opacity="1" data-original="#ffffff" class=""></path><path fill="#f3f0f3" d="M484.5 32.196H464V343.65h40.5V52.196c0-11.045-8.954-20-20-20z" opacity="1" data-original="#f3f0f3" class=""></path><path fill="#978ecb" d="M484.5 24.696h-457c-15.164 0-27.5 12.336-27.5 27.5v317.65c0 15.164 12.336 27.5 27.5 27.5h457c15.164 0 27.5-12.336 27.5-27.5V52.196c0-15.163-12.336-27.5-27.5-27.5zM497 336.15H15V52.196c0-6.893 5.607-12.5 12.5-12.5h457c6.893 0 12.5 5.607 12.5 12.5z" opacity="1" data-original="#978ecb" class=""></path><path fill="#8379c1" d="M484.5 24.696H464v15h20.5c6.893 0 12.5 5.607 12.5 12.5V336.15h-33v41.196c0 11.046-8.954 20-20 20h40.5c15.164 0 27.5-12.336 27.5-27.5V52.196c0-15.163-12.336-27.5-27.5-27.5z" opacity="1" data-original="#8379c1" class=""></path><path fill="#978ecb" d="M358.186 437.032H153.814c-19.221 0-34.803 15.582-34.803 34.803v10.468a5 5 0 0 0 5 5h263.978a5 5 0 0 0 5-5v-10.468c0-19.221-15.582-34.803-34.803-34.803z" opacity="1" data-original="#978ecb" class=""></path><path fill="#8379c1" d="M358.186 437.032h-41.989c19.221 0 34.803 15.582 34.803 34.803v10.468a5 5 0 0 1-5 5h41.989a5 5 0 0 0 5-5v-10.468c0-19.221-15.582-34.803-34.803-34.803z" opacity="1" data-original="#8379c1" class=""></path><g fill="#978ecb"><path d="M90.642 170.715H57.588c7.41 40.729 43.062 71.611 85.93 71.611.334 0 .666-.009 1-.013V210.12c-.334.006-.664.025-1 .025-24.998.001-46.101-16.631-52.876-39.43zM143.518 67.634c-44.9 0-81.881 33.881-86.787 77.471h32.52c4.657-25.752 27.173-45.29 54.267-45.29 30.467 0 55.166 24.699 55.166 55.166 0 .335-.019.666-.025 1h32.193c.004-.333.013-.666.013-1-.001-48.241-39.107-87.347-87.347-87.347z" fill="#978ecb" opacity="1" data-original="#978ecb" class=""></path></g><path fill="#ffe177" d="M143.518 210.146v32.18c48.24 0 87.346-39.106 87.346-87.346h-32.18c0 30.468-24.699 55.166-55.166 55.166z" opacity="1" data-original="#ffe177" class=""></path><g fill="#8ac9fe"><path d="m245.037 246.452-29.212 29.213c4.996 1.843 8.716 6.313 9.48 11.733l31.466-31.466c-5.421-.764-9.892-4.484-11.734-9.48zM313.566 250.455a14.605 14.605 0 0 1-1.894-15h-39.393a14.605 14.605 0 0 1-1.894 15zM198.124 296.956c-1.311-2.199-2.078-4.759-2.078-7.5s.767-5.301 2.079-7.5H91.201c1.063 2.284 1.674 4.819 1.674 7.5s-.611 5.216-1.674 7.5zM384.179 170.15l-56.727 56.727c5.38.862 9.787 4.641 11.546 9.668l55.059-55.059a17.917 17.917 0 0 1-9.878-11.336zM455.828 156.906h-38.714a17.734 17.734 0 0 1 .731 15h37.983c4.143 0 7.5-3.358 7.5-7.5s-3.357-7.5-7.5-7.5z" fill="#8ac9fe" opacity="1" data-original="#8ac9fe" class=""></path></g><circle cx="75.023" cy="289.456" r="18.852" fill="#fd8087" transform="rotate(-79.86 75.114 289.611)" opacity="1" data-original="#fd8087" class=""></circle><path fill="#fe646f" d="M75.023 270.604c-3.096 0-6.009.76-8.586 2.083 6.09 3.125 10.266 9.453 10.266 16.769s-4.176 13.644-10.266 16.769a18.75 18.75 0 0 0 8.586 2.083c10.412 0 18.852-8.44 18.852-18.852s-8.44-18.852-18.852-18.852z" opacity="1" data-original="#fe646f" class=""></path><circle cx="210.756" cy="289.456" r="15.71" fill="#ffe177" transform="rotate(-51.33 210.593 289.317)" opacity="1" data-original="#ffe177" class=""></circle><circle cx="258.828" cy="241.384" r="15.71" fill="#ffe177" transform="rotate(-76.83 258.657 241.297)" opacity="1" data-original="#ffe177" class=""></circle><circle cx="325.123" cy="241.384" r="15.71" fill="#ffe177" transform="rotate(-80.85 325.1 241.458)" opacity="1" data-original="#ffe177" class=""></circle><path fill="#ffd15b" d="M325.123 225.674c-2.6 0-5.047.642-7.207 1.76 5.047 2.613 8.503 7.873 8.503 13.949s-3.456 11.336-8.503 13.949a15.627 15.627 0 0 0 7.207 1.76c8.676 0 15.71-7.033 15.71-15.71 0-8.674-7.034-15.708-15.71-15.708zM258.828 225.674c-2.6 0-5.047.642-7.207 1.76 5.047 2.613 8.503 7.873 8.503 13.949s-3.456 11.336-8.503 13.949a15.627 15.627 0 0 0 7.207 1.76c8.676 0 15.71-7.033 15.71-15.71 0-8.674-7.034-15.708-15.71-15.708zM210.756 273.746c-2.6 0-5.047.642-7.207 1.76 5.047 2.613 8.503 7.873 8.503 13.949s-3.456 11.336-8.503 13.949a15.627 15.627 0 0 0 7.207 1.76c8.676 0 15.71-7.034 15.71-15.71 0-8.674-7.034-15.708-15.71-15.708z" opacity="1" data-original="#ffd15b" class=""></path><circle cx="401.315" cy="165.192" r="18.852" fill="#05e39c" transform="rotate(-76.83 401.187 165.136)" opacity="1" data-original="#05e39c" class=""></circle><path fill="#0ed290" d="M401.315 146.34c-3.095 0-6.007.76-8.583 2.082 6.092 3.125 10.268 9.453 10.268 16.77s-4.177 13.646-10.268 16.77a18.74 18.74 0 0 0 8.583 2.081c10.412 0 18.852-8.44 18.852-18.852 0-10.411-8.44-18.851-18.852-18.851z" opacity="1" data-original="#0ed290" class=""></path><path fill="#d8ecfe" d="M450.828 314H388a5 5 0 0 1-5-5v-85a5 5 0 0 1 5-5h62.828a5 5 0 0 1 5 5v85a5 5 0 0 1-5 5z" opacity="1" data-original="#d8ecfe" class=""></path><path fill="#c4e2ff" d="M450.828 219H428a5 5 0 0 1 5 5v85a5 5 0 0 1-5 5h22.828a5 5 0 0 0 5-5v-85a5 5 0 0 0-5-5z" opacity="1" data-original="#c4e2ff" class=""></path><path fill="#8ac9fe" d="M455.828 274v-15H383v15z" opacity="1" data-original="#8ac9fe" class=""></path><path fill="#05e39c" d="M452.828 75.089H273.652V102.7h179.176a3 3 0 0 0 3-3V78.089a3 3 0 0 0-3-3z" opacity="1" data-original="#05e39c" class=""></path><path fill="#0ed290" d="M452.828 75.089h-31.152a3 3 0 0 1 3 3V99.7a3 3 0 0 1-3 3h31.152a3 3 0 0 0 3-3V78.089a3 3 0 0 0-3-3z" opacity="1" data-original="#0ed290" class=""></path><path fill="#fd8087" d="M352.4 131.968h-78.748v27.611H352.4a3 3 0 0 0 3-3v-21.611a3 3 0 0 0-3-3z" opacity="1" data-original="#fd8087" class=""></path><path fill="#fe646f" d="M352.4 131.968h-31.152a3 3 0 0 1 3 3v21.611a3 3 0 0 1-3 3H352.4a3 3 0 0 0 3-3v-21.611a3 3 0 0 0-3-3z" opacity="1" data-original="#fe646f" class=""></path><path fill="#05e39c" d="M126 171.716H43.752a3 3 0 0 1-3-3v-21.611a3 3 0 0 1 3-3H126a3 3 0 0 1 3 3v21.611a3 3 0 0 1-3 3z" opacity="1" data-original="#05e39c" class=""></path><path fill="#0ed290" d="M126 144.104H94.248a3 3 0 0 1 3 3v21.611a3 3 0 0 1-3 3H126a3 3 0 0 0 3-3v-21.611a3 3 0 0 0-3-3z" opacity="1" data-original="#0ed290" class=""></path><path fill="#8ac9fe" d="M267.152 174.534a7.5 7.5 0 0 1-7.5-7.5v-99.4c0-4.142 3.357-7.5 7.5-7.5s7.5 3.358 7.5 7.5v99.4a7.5 7.5 0 0 1-7.5 7.5z" opacity="1" data-original="#8ac9fe" class=""></path></g></svg>